<?xml version="1.0" encoding="UTF-8" standalone="no"?>
<svg
   xmlns:dc="http://purl.org/dc/elements/1.1/"
   xmlns:cc="http://creativecommons.org/ns#"
   xmlns:rdf="http://www.w3.org/1999/02/22-rdf-syntax-ns#"
   xmlns:svg="http://www.w3.org/2000/svg"
   xmlns="http://www.w3.org/2000/svg"
   viewBox="0 0 483.64267 117.4076"
   height="117.4076"
   width="483.64267"
   xml:space="preserve"
   id="svg2"
   version="1.1"><metadata
     id="metadata8"><rdf:RDF><cc:Work
         rdf:about=""><dc:format>image/svg+xml</dc:format><dc:type
           rdf:resource="http://purl.org/dc/dcmitype/StillImage" /></cc:Work></rdf:RDF></metadata><defs
     id="defs6"><clipPath
       id="clipPath18"
       clipPathUnits="userSpaceOnUse"><path
         id="path16"
         d="M 0,88.056 H 362.732 V 0 H 0 Z" /></clipPath></defs><g
     transform="matrix(1.3333333,0,0,-1.3333333,0,117.4076)"
     id="g10"><g
       id="g12"><g
         clip-path="url(#clipPath18)"
         id="g14"><g
           transform="translate(18.144,50.9038)"
           id="g20"><path
             id="path22"
             style="fill:none;stroke:#555656;stroke-width:1;stroke-linecap:butt;stroke-linejoin:miter;stroke-miterlimit:10;stroke-dasharray:none;stroke-opacity:1"
             d="m 0,0 2.952,0.432 c 1.823,0 2.736,-2.088 2.736,-6.264 v -17.136 h 16.128 v 18.792 c 0,6.864 -1.044,11.664 -3.132,14.4 -2.088,2.736 -5.749,4.104 -10.98,4.104 C 5.928,14.328 3.359,13.92 0,13.104 v 13.608 h -16.128 v -49.68 H 0 Z" /></g><g
           transform="translate(79.6313,41.3999)"
           id="g24"><path
             id="path26"
             style="fill:none;stroke:#555656;stroke-width:1;stroke-linecap:butt;stroke-linejoin:miter;stroke-miterlimit:10;stroke-dasharray:none;stroke-opacity:1"
             d="m 0,0 0.72,7.128 c 0,5.664 -1.56,9.864 -4.68,12.6 -3.121,2.736 -7.884,4.104 -14.292,4.104 -6.408,0 -11.124,-1.668 -14.148,-5.004 -3.024,-3.337 -4.536,-8.256 -4.536,-14.76 0,-6.505 1.404,-11.208 4.212,-14.112 2.808,-2.905 7.368,-4.356 13.68,-4.356 6.311,0 12.66,0.696 19.044,2.088 l -0.36,10.44 -2.808,-0.216 c -4.8,-0.288 -9.601,-0.432 -14.4,-0.432 -2.113,0 -3.193,0.839 -3.24,2.52 z m -20.88,8.784 c 0.047,1.392 0.263,2.376 0.648,2.952 0.383,0.576 1.08,0.864 2.088,0.864 1.008,0 1.715,-0.288 2.124,-0.864 0.407,-0.576 0.612,-1.56 0.612,-2.952 z" /></g><path
           id="path28"
           style="fill:none;stroke:#555656;stroke-width:1;stroke-linecap:butt;stroke-linejoin:miter;stroke-miterlimit:10;stroke-dasharray:none;stroke-opacity:1"
           d="M 99.502,77.616 H 83.374 v -49.68 h 16.128 z" /><path
           id="path30"
           style="fill:none;stroke:#555656;stroke-width:1;stroke-linecap:butt;stroke-linejoin:miter;stroke-miterlimit:10;stroke-dasharray:none;stroke-opacity:1"
           d="m 119.662,77.616 h -16.128 v -49.68 h 16.128 z" /><g
           transform="translate(122.7583,46.0801)"
           id="g32"><path
             id="path34"
             style="fill:none;stroke:#555656;stroke-width:1;stroke-linecap:butt;stroke-linejoin:miter;stroke-miterlimit:10;stroke-dasharray:none;stroke-opacity:1"
             d="m 0,0 c 0,-6.768 1.595,-11.641 4.788,-14.616 3.191,-2.977 8.003,-4.464 14.436,-4.464 6.432,0 11.243,1.487 14.436,4.464 3.192,2.975 4.788,7.848 4.788,14.616 0,6.768 -1.596,11.651 -4.788,14.652 -3.193,2.999 -8.004,4.5 -14.436,4.5 -6.433,0 -11.245,-1.501 -14.436,-4.5 C 1.595,11.651 0,6.768 0,0 Z m 16.272,0.036 c 0,2.328 0.216,3.924 0.648,4.788 0.432,0.864 1.199,1.296 2.304,1.296 1.104,0 1.872,-0.432 2.304,-1.296 0.432,-0.864 0.648,-2.46 0.648,-4.788 0,-2.329 -0.216,-3.924 -0.648,-4.788 -0.432,-0.864 -1.2,-1.296 -2.304,-1.296 -1.105,0 -1.872,0.432 -2.304,1.296 -0.432,0.864 -0.648,2.459 -0.648,4.788 z" /></g><g
           transform="translate(182.8052,27.936)"
           id="g36"><path
             id="path38"
             style="fill:none;stroke:#555656;stroke-width:1;stroke-linecap:butt;stroke-linejoin:miter;stroke-miterlimit:10;stroke-dasharray:none;stroke-opacity:1"
             d="M 0,0 H 21.96 L 23.328,15.696 24.552,0 H 47.52 l 3.672,36.36 H 35.28 L 34.488,13.464 H 33.624 L 31.32,35.424 H 16.704 L 15.048,13.464 H 14.184 L 13.464,36.36 H -4.32 Z" /></g><g
           transform="translate(235.5098,46.0801)"
           id="g40"><path
             id="path42"
             style="fill:none;stroke:#555656;stroke-width:1;stroke-linecap:butt;stroke-linejoin:miter;stroke-miterlimit:10;stroke-dasharray:none;stroke-opacity:1"
             d="m 0,0 c 0,-6.768 1.595,-11.641 4.788,-14.616 3.191,-2.977 8.003,-4.464 14.436,-4.464 6.432,0 11.243,1.487 14.436,4.464 3.191,2.975 4.788,7.848 4.788,14.616 0,6.768 -1.597,11.651 -4.788,14.652 -3.193,2.999 -8.004,4.5 -14.436,4.5 -6.433,0 -11.245,-1.501 -14.436,-4.5 C 1.595,11.651 0,6.768 0,0 Z m 16.272,0.036 c 0,2.328 0.216,3.924 0.648,4.788 0.432,0.864 1.199,1.296 2.304,1.296 1.104,0 1.872,-0.432 2.304,-1.296 0.431,-0.864 0.648,-2.46 0.648,-4.788 0,-2.329 -0.217,-3.924 -0.648,-4.788 -0.432,-0.864 -1.2,-1.296 -2.304,-1.296 -1.105,0 -1.872,0.432 -2.304,1.296 -0.432,0.864 -0.648,2.459 -0.648,4.788 z" /></g><g
           transform="translate(293.1812,47.6641)"
           id="g44"><path
             id="path46"
             style="fill:none;stroke:#555656;stroke-width:1;stroke-linecap:butt;stroke-linejoin:miter;stroke-miterlimit:10;stroke-dasharray:none;stroke-opacity:1"
             d="M 0,0 1.297,0.648 C 3.889,1.944 6,2.592 7.633,2.592 v 14.976 c -2.065,0 -4.609,-1.44 -7.633,-4.32 v 3.384 h -16.128 v -36.36 H 0 Z" /></g><path
           id="path48"
           style="fill:none;stroke:#555656;stroke-width:1;stroke-linecap:butt;stroke-linejoin:miter;stroke-miterlimit:10;stroke-dasharray:none;stroke-opacity:1"
           d="m 319.676,77.616 h -16.128 v -49.68 h 16.128 z" /><g
           transform="translate(344.5894,77.6162)"
           id="g50"><path
             id="path52"
             style="fill:none;stroke:#555656;stroke-width:1;stroke-linecap:butt;stroke-linejoin:miter;stroke-miterlimit:10;stroke-dasharray:none;stroke-opacity:1"
             d="m 0,0 v -12.816 l -5.832,0.432 c -10.609,0 -15.912,-6.385 -15.912,-19.152 0,-6.24 1.055,-10.98 3.168,-14.22 2.111,-3.24 5.806,-4.86 11.088,-4.86 2.399,0 4.919,0.84 7.559,2.52 L 0.216,-49.68 H 16.128 V 0 Z m 0,-25.632 v -11.736 l -2.232,-0.216 c -1.296,0 -2.161,0.527 -2.592,1.584 -0.433,1.055 -0.649,2.556 -0.649,4.5 0,1.944 0.204,3.443 0.613,4.5 0.407,1.055 1.259,1.584 2.555,1.584 0.48,0 1.248,-0.072 2.305,-0.216 z" /></g></g></g></g></svg>